<svg viewBox="0 0 100 100" xmlns="http://www.w3.org/2000/svg">
  <path fill="#000000" d="
    M80.7312,43.7995 M57.2427,45.3479 c-7.7615,10.3411,-24.3411,6.8505,-34.9708,7.3526 c0,0,-1.8818,0.1046,-3.7771,0.4166 c0,0,0.7167,-0.3057,1.6307,-0.6208 c7.4657,-2.5818,10.9938,-3.1006,15.5302,-5.4307 c8.5235,-4.3661,17.0063,-13.8767,18.7323,-23.7563 c-3.2443,9.502,-13.1115,17.6802,-22.0959,21.0011 c-6.1494,2.2692,-17.2702,4.4776,-17.2718,4.4785 c0.0052,0.0079,-0.4432,-0.2328,-0.4495,-0.238 c-7.563,-3.6796,-7.7812,-20.0598,5.9547,-25.34 c6.0224,-2.3166,11.7829,-1.0442,18.2933,-2.5938 c6.9437,-1.651,14.9859,-6.8558,18.2547,-13.6604 c3.6645,10.8693,8.0666,27.8745,0.1692,38.3912 m0.1349,-41.7594 c-0.924,2.1952,-2.0516,4.1734,-3.3516,5.9427 C48.3041,3.6588,40.3177,0,31.4901,0 C14.1255,0,0,14.127,0,31.4885 C0,40.59,3.8849,48.7984,10.0786,54.552 l0.6896,0.611 c-1.1515,-0.9391,-1.3286,-2.6303,-0.3953,-3.7829 c0.939,-1.153,2.6318,-1.3317,3.7839,-0.3979 c1.1552,0.936,1.3312,2.6313,0.3959,3.786 c-0.9319,1.1552,-2.6277,1.3297,-3.7813,0.3974 l0.4692,0.4156 c5.4787,4.613,12.5411,7.3995,20.2495,7.3995 c16.5979,0,30.2271,-12.9167,31.3938,-29.2198 c0.864,-7.9824,-1.4938,-18.1182,-5.5063,-30.1724
  "></path>
</svg>
